# AST/ASF file generated using VICON BodyLanguage
# -----------------------------------------------
:version 1.10
:name VICON
:units
  mass 1.0
  length 0.45
  angle deg
:documentation
   .ast/.asf automatically generated from VICON data using
   VICON BodyBuilder and BodyLanguage model FoxedUp or BRILLIANT.MOD
:root
   order TX TY TZ RX RY RZ
   axis XYZ
   position 0 0 0  
   orientation 0 0 0 
:bonedata
  begin
     id 1 
     name lhipjoint
     direction 0.588788 -0.725889 0.355548 
     length 2.37778 
     axis 0 0 0  XYZ
  end
  begin
     id 2 
     name lfemur
     direction 0.34202 -0.939693 0  
     length 6.86393  
     axis 0 0 20  XYZ
    dof rx ry rz
    limits (-160.0 20.0)
           (-70.0 70.0)
           (-60.0 70.0)
  end
  begin
     id 3 
     name ltibia
     direction 0.34202 -0.939693 0   
     length 7.32851   
     axis 0 0 20   XYZ
    dof rx
    limits (-10.0 170.0)
  end
  begin
     id 4 
     name lfoot
     direction 0.0626533 -0.172138 0.983078   
     length 1.98929   
     axis -90 7.62852e-016 20   XYZ
    dof rx rz
    limits (-45.0 90.0)
           (-70.0 20.0)
  end
  begin
     id 5 
     name ltoes
     direction 1.53647e-011 -4.21734e-011 1   
     length 1.00479   
     axis -90 7.62852e-016 20   XYZ
    dof rx
    limits (-90.0 20.0)
  end
  begin
     id 6 
     name rhipjoint
     direction -0.59141 -0.724168 0.354705   
     length 2.38343  
     axis 0 0 0  XYZ 
  end
  begin
     id 7 
     name rfemur
     direction -0.34202 -0.939693 0   
     length 6.95589   
     axis 0 0 -20   XYZ
    dof rx ry rz
    limits (-160.0 20.0)
           (-70.0 70.0)
           (-70.0 60.0)
  end
  begin
     id 8 
     name rtibia
     direction -0.34202 -0.939693 0   
     length 7.32327   
     axis 0 0 -20   XYZ
    dof rx
    limits (-10.0 170.0)
 end
 begin
     id 9 
     name rfoot
     direction -0.0660461 -0.18146 0.981178   
     length 1.85272  
     axis -90 -7.62852e-016 -20   XYZ
    dof rx rz
    limits (-45.0 90.0)
           (-20.0 70.0)
  end
  begin
     id 10 
     name rtoes
     direction -1.53586e-011 -4.21988e-011 1   
     length 0.93746   
     axis -90 -7.62852e-016 -20   XYZ
    dof rx
    limits (-90.0 20.0)
  end
  begin
     id 11 
     name lowerback
     direction -0.0107982 0.991059 0.13299   
     length 1.98691   
     axis 0 0 0   XYZ
    dof rx ry rz
    limits (-20.0 45.0)
           (-30.0 30.0)
           (-30.0 30.0)
  end
  begin
     id 12 
     name upperback
     direction 0.0076296 0.999916 0.0104576   
     length 1.99501   
     axis 0 0 0   XYZ
    dof rx ry rz
    limits (-20.0 45.0)
           (-30.0 30.0)
           (-30.0 30.0)
  end
  begin
     id 13 
     name thorax
     direction 0.01176 0.998615 -0.0512909   
     length 2.03144   
     axis 0 0 0   XYZ
    dof rx ry rz
    limits (-20.0 45.0)
           (-30.0 30.0)
           (-30.0 30.0)
  end
  begin
     id 14 
     name lowerneck
     direction -0.0171909 0.999644 0.0204011   
     length 1.71818   
     axis 0 0 0   XYZ
    dof rx ry rz
    limits (-20.0 45.0)
           (-30.0 30.0)
           (-30.0 30.0)
  end
  begin
     id 15 
     name upperneck
     direction 0.0250902 0.997482 -0.0663316   
     length 1.66199   
     axis 0 0 0   XYZ
    dof rx ry rz
    limits (-20.0 45.0)
           (-30.0 30.0)
           (-30.0 30.0)
  end
  begin
     id 16
     name head
     direction 0.00881535 0.99956 -0.0283365  
     length 1.81545  
     axis 0 0 0   XYZ
    dof rx ry rz
    limits (-20.0 45.0)
           (-30.0 30.0)
           (-30.0 30.0)
  end
  begin
     id 17 
     name lclavicle
     direction 0.840411 0.486876 -0.238035  
     length 3.30409  
     axis 0 0 0   XYZ
    dof ry rz
    limits (-20.0 10.0)
           (0.0 20.0)
  end
  begin
     id 18 
     name lhumerus
     direction 1 -4.48977e-011 -5.16239e-027   
     length 4.62672   
     axis 180 -30 -90   XYZ
    dof rx ry rz
    limits (-60.0 90.0)
           (-90.0 90.0)
           (-90.0 90.0)
  end
  begin
     id 19
     name lradius
     direction 1 -4.48977e-011 -8.71171e-027   
     length 3.11018   
     axis 180 -30 -90   XYZ
    dof rx
    limits (-10.0 170.0)
  end
  begin
     id 20
     name lwrist
     direction 1 -4.48912e-011 -1.03764e-026   
     length 1.55509   
     axis 9.09556e-015 90 90   XYZ
    dof ry
    limits (-180.0 0.0)
 end
  begin
     id 21 
     name lhand
     direction 1 -4.49072e-011 -2.07528e-026   
     length 0.743834   
     axis 1.3242e-014 90 90   XYZ
    dof rx rz
    limits (-90.0 90.0)
           (-45.0 45.0)
  end
  begin
     id 22 
     name lfingers
     direction 1 -4.48909e-011 -4.15056e-026   
     length 0.599698   
     axis 2.64841e-014 90 90   XYZ
    dof rx
    limits (0.0 90.0)
  end
  begin
     id 23
     name lthumb
     direction 0.707107 -6.35013e-011 0.707107   
     length 0.86105   
     axis -90 45 2.85299e-015   XYZ
    dof rx rz
    limits (-45.0 45.0)
           (-45.0 45.0)
  end
  begin
     id 24 
     name rclavicle
     direction -0.835208 0.500237 -0.228452   
     length 3.2716  
     axis 0 0 0   XYZ 
    dof ry rz
    limits (-10.0 20.0)
           (-20.0 0.0)
  end
  begin
     id 25 
     name rhumerus
     direction -1 -4.48978e-011 -5.1953e-028  
     length 4.55919   
     axis 180 30 90   XYZ
    dof rx ry rz
    limits (-90.0 60.0)
           (-90.0 90.0)
           (-90.0 90.0)
  end
  begin
     id 26 
     name rradius
     direction -1 -4.48961e-011 -5.99546e-027   
     length 3.22748   
     axis 180 30 90   XYZ
    dof rx
    limits (-10.0 170.0)
  end
  begin
     id 27 
     name rwrist
     direction -1 -4.48986e-011 -1.03764e-026   
     length 1.61374   
     axis 9.09556e-015 -90 -90   XYZ
    dof ry
    limits (-180.0 0.0)
  end
  begin
     id 28
     name rhand
     direction -1 -4.4899e-011 -2.07528e-026   
     length 0.700882   
     axis 1.3242e-014 -90 -90   XYZ
    dof rx rz
    limits (-90.0 90.0)
           (-45.0 45.0)
  end
  begin
     id 29
     name rfingers
     direction -1 -4.48991e-011 -4.15056e-026   
     length 0.565069   
     axis 2.64841e-014 -90 -90   XYZ
    dof rx
    limits (0.0 90.0)
  end
  begin
     id 30
     name rthumb
     direction -0.707107 -6.34804e-011 0.707107   
     length 0.811329   
     axis -90 -45 -2.85299e-015   XYZ
    dof rx rz
    limits (-45.0 45.0)
           (-45.0 45.0)
  end
:hierarchy
  begin
    root lhipjoint rhipjoint lowerback
    lhipjoint lfemur
    lfemur ltibia
    ltibia lfoot
    lfoot ltoes
    rhipjoint rfemur
    rfemur rtibia
    rtibia rfoot
    rfoot rtoes
    lowerback upperback
    upperback thorax
    thorax lowerneck lclavicle rclavicle
    lowerneck upperneck
    upperneck head
    lclavicle lhumerus
    lhumerus lradius
    lradius lwrist
    lwrist lhand lthumb
    lhand lfingers
    rclavicle rhumerus
    rhumerus rradius
    rradius rwrist
    rwrist rhand rthumb
    rhand rfingers
  end

#!OML:ASF F:\VICON\USERDATA\INSTALL\SteveWalk\SteveWalk.ASF
:FULLY-SPECIFIED
:DEGREES
112
root 0.228102 16.3429 -20.615 18.5739 3.83177 -1.50064
lowerback -14.7814 -0.475855 3.31683
upperback -5.41278 -1.1902 2.82908
thorax 2.55254 -0.593008 0.89127
lowerneck -5.31664 -0.537206 0.564953
upperneck 7.47834 -0.401211 -4.49272
head 3.34809 -0.360942 -1.59393
rclavicle -1.47349e-014 2.22639e-014
rhumerus -53.8028 -38.483 -49.8945
rradius 14.206
rwrist 30.0661
rhand -14.9427 -36.7036
rfingers 7.12502
rthumb 11.2201 -66.3836
lclavicle -1.47349e-014 2.22639e-014
lhumerus -31.1177 4.18484 84.1154
lradius 36.2316
lwrist 6.16216
lhand -19.7107 -16.7774
lfingers 7.12502
lthumb 6.61909 13.0992
rfemur -43.4708 -2.98564 28.002
rtibia 37.7694
rfoot -14.8852 5.44205
rtoes -12.1275
lfemur -27.9851 1.96563 -17.6736
ltibia 71.5873
lfoot 8.5339 -11.1273
ltoes -17.7339
113
root 0.227235 16.3702 -20.4176 18.6512 3.60117 -1.26884
lowerback -14.9123 -0.37868 2.92976
upperback -5.49212 -1.00794 2.75246
thorax 2.54679 -0.500319 1.05866
lowerneck -4.99416 -0.540047 0.534098
upperneck 7.51767 -0.408639 -4.42739
head 3.29881 -0.359836 -1.56387
rclavicle 1.94809e-014 5.56597e-015
rhumerus -50.9365 -36.6278 -53.8169
rradius 14.9131
rwrist 26.7487
rhand -14.4756 -36.8761
rfingers 7.12502
rthumb 11.6705 -66.5311
lclavicle 1.94809e-014 5.56597e-015
lhumerus -31.7125 4.72586 84.1102
lradius 35.1693
lwrist 4.94644
lhand -18.6621 -16.1522
lfingers 7.12502
lthumb 7.63128 13.6901
rfemur -42.6408 -2.77164 27.6505
rtibia 37.588
rfoot -15.4791 4.73087
rtoes -12.9571
lfemur -29.8312 2.17793 -18.0083
ltibia 73.0421
lfoot 12.7948 -11.0223
ltoes 6.95415
114
root 0.225773 16.3975 -20.2215 18.6642 3.25908 -1.12083
lowerback -14.9934 -0.272825 2.60814
upperback -5.48723 -0.825252 2.70166
thorax 2.60024 -0.407 1.21692
lowerneck -4.90182 -0.517554 0.521463
upperneck 7.69037 -0.37529 -4.38412
head 3.34138 -0.343012 -1.54737
rclavicle 5.34234e-016 -1.43125e-014
rhumerus -47.9282 -34.1607 -58.0598
rradius 15.8405
rwrist 23.1056
rhand -14.1034 -37.219
rfingers 7.12502
rthumb 12.0294 -66.8533
lclavicle 5.34234e-016 -1.43125e-014
lhumerus -32.192 5.16021 84.0918
lradius 33.985
lwrist 3.58306
lhand -18.4027 -16.3972
lfingers 7.12502
lthumb 7.88168 13.4359
rfemur -41.7356 -2.39995 27.3267
rtibia 37.421
rfoot -16.0314 4.63618
rtoes -11.5897
lfemur -31.5928 2.55353 -18.3202
ltibia 74.2078
lfoot 8.00429 -9.24114
ltoes -9.82029
115
root 0.227676 16.4217 -20.0255 18.7941 2.95655 -0.922825
lowerback -15.2473 -0.214233 2.26086
upperback -5.43547 -0.710864 2.68913
thorax 2.79475 -0.346453 1.4185
lowerneck -5.03857 -0.471454 0.543478
upperneck 7.85028 -0.300087 -4.48188
head 3.42608 -0.312327 -1.5846
rclavicle 6.59717e-015 0
rhumerus -44.936 -31.1256 -62.3398
rradius 17.0577
rwrist 18.9137
rhand -14.3222 -37.8309
rfingers 7.12502
rthumb 11.8184 -67.4774
lclavicle 6.59717e-015 0
lhumerus -32.4716 5.90151 84.1016
lradius 32.6649
lwrist 2.37422
lhand -18.1608 -17.3598
lfingers 7.12502
lthumb 8.11517 12.4643
rfemur -40.9379 -2.09725 26.9589
rtibia 37.2544
rfoot -16.6053 4.57116
rtoes -9.74974
lfemur -33.3082 2.64855 -18.6934
ltibia 75.0842
lfoot 5.89296 -7.91162
ltoes -13.781
116
root 0.231851 16.4432 -19.8288 18.8762 2.78304 -0.837116
lowerback -15.5811 -0.148029 2.12132
upperback -5.32787 -0.619467 2.66531
thorax 3.08691 -0.298699 1.48805
lowerneck -5.25918 -0.4734 0.46002
upperneck 8.19079 -0.286475 -4.42009
head 3.58744 -0.312197 -1.55609
rclavicle 2.06239e-015 -3.73715e-014
rhumerus -42.5292 -28.6419 -65.6657
rradius 18.1459
rwrist 15.7612
rhand -14.7761 -37.8948
rfingers 7.12502
rthumb 11.3807 -67.5659
lclavicle 2.06239e-015 -3.73715e-014
lhumerus -32.9097 6.2942 84.1609
lradius 31.6991
lwrist 1.60138
lhand -18.2679 -18.2852
lfingers 7.12502
lthumb 8.01173 11.543
rfemur -40.0888 -1.96766 26.7851
rtibia 37.0701
rfoot -17.3038 4.34937
rtoes -9.45448
lfemur -34.8937 2.7202 -18.9115
ltibia 75.7122
lfoot 4.37131 -6.48572
ltoes -13.6376
